<?xml version="1.0" encoding="utf-8"?>
<!-- Generator: Adobe Illustrator 23.0.1, SVG Export Plug-In . SVG Version: 6.00 Build 0)  -->
<svg version="1.1" id="Capa_1" xmlns="http://www.w3.org/2000/svg" xmlns:xlink="http://www.w3.org/1999/xlink" x="0px" y="0px"
	 viewBox="0 0 200 200" style="enable-background:new 0 0 200 200;" xml:space="preserve">
<style type="text/css">
	.st0{fill:#FFFFFF;}
</style>
<g>
	<g>
		<path class="st0" d="M179.5,7.7h-6.9c0.2-0.6,0.4-1.1,0.4-1.8c0-3.3-2.6-5.9-5.9-5.9s-5.9,2.6-5.9,5.9c0,0.6,0.2,1.2,0.4,1.8
			h-22.4c0.2-0.6,0.4-1.1,0.4-1.8c0-3.3-2.6-5.9-5.9-5.9c-3.2,0-5.9,2.6-5.9,5.9c0,0.6,0.2,1.2,0.4,1.8h-22.6
			c0.2-0.6,0.4-1.1,0.4-1.8c0-3.3-2.6-5.9-5.9-5.9c-3.3,0-5.9,2.6-5.9,5.9c0,0.6,0.2,1.2,0.4,1.8H72c0.2-0.6,0.4-1.1,0.4-1.8
			c0-3.3-2.6-5.9-5.9-5.9c-3.3,0-5.9,2.6-5.9,5.9c0,0.6,0.2,1.2,0.4,1.8H38.5c0.2-0.6,0.4-1.1,0.4-1.8C38.9,2.6,36.3,0,33,0
			s-5.9,2.6-5.9,5.9c0,0.6,0.2,1.2,0.4,1.8h-6.9c-9.4,0-16.9,7.5-16.9,16.8v158.8c0,9.3,7.5,16.8,16.8,16.8h139.9l35.8-35.8V24.4
			C196.2,15.2,188.7,7.7,179.5,7.7z M187,160.5l-1.9,1.9h-14.4c-6.7,0-12.2,5.5-12.2,12.2v14.4l-1.9,1.9H20.5
			c-4.2,0-7.7-3.4-7.7-7.7V30.5H187L187,160.5L187,160.5z"/>
		<rect x="60.4" y="46.1" class="st0" width="21.6" height="21.6"/>
		<rect x="89.2" y="46.1" class="st0" width="21.6" height="21.6"/>
		<rect x="118" y="46.1" class="st0" width="21.6" height="21.6"/>
		<rect x="146.8" y="46.1" class="st0" width="21.6" height="21.6"/>
		<rect x="31.6" y="74.8" class="st0" width="21.6" height="21.6"/>
		<rect x="60.4" y="74.8" class="st0" width="21.6" height="21.6"/>
		<rect x="89.2" y="74.8" class="st0" width="21.6" height="21.6"/>
		<rect x="118" y="74.8" class="st0" width="21.6" height="21.6"/>
		<rect x="146.8" y="74.8" class="st0" width="21.6" height="21.6"/>
		<rect x="31.6" y="103.6" class="st0" width="21.6" height="21.6"/>
		<rect x="60.4" y="103.6" class="st0" width="21.6" height="21.6"/>
		<rect x="89.2" y="103.6" class="st0" width="21.6" height="21.6"/>
		<rect x="118" y="103.6" class="st0" width="21.6" height="21.6"/>
		<rect x="146.8" y="103.6" class="st0" width="21.6" height="21.6"/>
		<rect x="31.6" y="132.5" class="st0" width="21.6" height="21.6"/>
		<rect x="60.4" y="132.5" class="st0" width="21.6" height="21.6"/>
		<rect x="89.2" y="132.5" class="st0" width="21.6" height="21.6"/>
		<rect x="118" y="132.5" class="st0" width="21.6" height="21.6"/>
		<rect x="146.8" y="132.5" class="st0" width="21.6" height="21.6"/>
		<rect x="31.6" y="164.9" class="st0" width="50.4" height="10.8"/>
	</g>
</g>
</svg>
