<?xml version="1.0" encoding="utf-8"?>
<!-- Generator: Adobe Illustrator 23.0.1, SVG Export Plug-In . SVG Version: 6.00 Build 0)  -->
<svg version="1.1" id="Layer_1" xmlns="http://www.w3.org/2000/svg" xmlns:xlink="http://www.w3.org/1999/xlink" x="0px" y="0px"
	 viewBox="0 0 200 200" style="enable-background:new 0 0 200 200;" xml:space="preserve">
<style type="text/css">
	.st0{opacity:0.9;fill:#FFFFFF;enable-background:new    ;}
</style>
<path class="st0" d="M114.2,14.3c-47.4,0-85.7,38.4-85.7,85.7H0l37.1,37.1l0.7,1.4L76.2,100H47.6c0-36.8,29.9-66.7,66.7-66.7
	S181,63.2,181,100s-29.9,66.7-66.7,66.7c-18.4,0-35-7.5-47.1-19.6l-13.5,13.5c15.5,15.5,36.9,25.1,60.5,25.1
	c47.4,0,85.8-38.4,85.8-85.7S161.6,14.3,114.2,14.3z M104.8,61.9v47.6l40.8,24.2l6.9-11.6L119,102.4V61.9H104.8z"/>
</svg>
